<svg width="124" height="24" viewBox="0 0 124 24" fill="none" xmlns="http://www.w3.org/2000/svg">
<path d="M41.3608 23.5504C40.0269 23.5504 39.0757 23.1459 38.5072 22.3368C37.9605 21.5277 37.6872 20.4235 37.6872 19.024V0H41.4592V19.2208C41.4592 19.68 41.5467 20.008 41.7216 20.2048C41.8965 20.3797 42.0824 20.4672 42.2792 20.4672H42.5088C42.5963 20.4453 42.7165 20.4235 42.8696 20.4016L43.3616 23.2224C43.1429 23.3099 42.8587 23.3864 42.5088 23.452C42.1808 23.5176 41.7981 23.5504 41.3608 23.5504Z" fill="#1B353D"/>
<path d="M4.7888 22.2712C6.25387 23.124 7.88293 23.5504 9.676 23.5504C11.0536 23.5504 12.3 23.288 13.4152 22.7632C14.5523 22.2165 15.5581 21.4403 16.4328 20.4344L14.3992 18.04C13.7869 18.696 13.1091 19.2317 12.3656 19.6472C11.6221 20.0408 10.7693 20.2376 9.8072 20.2376C8.01413 20.2376 6.58187 19.5488 5.5104 18.1712C4.43893 16.7717 3.9032 14.8475 3.9032 12.3984C3.9032 10.7803 4.15467 9.39173 4.6576 8.2328C5.1824 7.07387 5.89307 6.18827 6.7896 5.576C7.708 4.94187 8.74667 4.6248 9.9056 4.6248C10.7365 4.6248 11.48 4.79973 12.136 5.1496C12.8139 5.4776 13.4261 5.92587 13.9728 6.4944L16.0064 4.0344C15.3285 3.3128 14.4648 2.67867 13.4152 2.132C12.3656 1.58533 11.1629 1.312 9.8072 1.312C8.01413 1.312 6.37413 1.76027 4.8872 2.6568C3.40027 3.53147 2.20853 4.81067 1.312 6.4944C0.437333 8.15627 0 10.1571 0 12.4968C0 14.8584 0.4264 16.8701 1.2792 18.532C2.15387 20.172 3.32373 21.4184 4.7888 22.2712Z" fill="#1B353D"/>
<path fill-rule="evenodd" clip-rule="evenodd" d="M22.5392 22.5664C23.6982 23.2224 24.9446 23.5504 26.2784 23.5504C27.6342 23.5504 28.8915 23.2224 30.0504 22.5664C31.2094 21.8885 32.1496 20.9264 32.8712 19.68C33.5928 18.4117 33.9536 16.892 33.9536 15.1208C33.9536 13.3277 33.5928 11.808 32.8712 10.5616C32.1496 9.29333 31.2094 8.3312 30.0504 7.6752C28.8915 6.99733 27.6342 6.6584 26.2784 6.6584C24.9446 6.6584 23.6982 6.99733 22.5392 7.6752C21.3803 8.3312 20.44 9.29333 19.7184 10.5616C18.9968 11.808 18.636 13.3277 18.636 15.1208C18.636 16.892 18.9968 18.4117 19.7184 19.68C20.44 20.9264 21.3803 21.8885 22.5392 22.5664ZM29.0664 18.9912C28.3886 19.9752 27.4592 20.4672 26.2784 20.4672C25.0976 20.4672 24.1683 19.9752 23.4904 18.9912C22.8344 18.0072 22.5064 16.7171 22.5064 15.1208C22.5064 13.5027 22.8344 12.2016 23.4904 11.2176C24.1683 10.2336 25.0976 9.7416 26.2784 9.7416C27.4592 9.7416 28.3886 10.2336 29.0664 11.2176C29.7443 12.2016 30.0832 13.5027 30.0832 15.1208C30.0832 16.7171 29.7443 18.0072 29.0664 18.9912Z" fill="#1B353D"/>
<path d="M47.6087 21.8776C48.3959 22.9928 49.6532 23.5504 51.3807 23.5504C52.474 23.5504 53.4362 23.2989 54.2671 22.796C55.098 22.2931 55.8634 21.6261 56.5631 20.7952H56.6615L56.9567 23.1568H60.0399V7.052H56.2679V18.0728C55.6556 18.86 55.0762 19.4285 54.5295 19.7784C54.0047 20.1283 53.3924 20.3032 52.6927 20.3032C51.818 20.3032 51.1839 20.0299 50.7903 19.4832C50.3967 18.9365 50.1999 17.9963 50.1999 16.6624V7.052H46.4279V17.1544C46.4279 19.188 46.8215 20.7624 47.6087 21.8776Z" fill="#1B353D"/>
<path d="M64.8177 23.1568V7.052H67.9337L68.1961 9.2496H68.3273C69.0051 8.528 69.7377 7.91573 70.5249 7.4128C71.3339 6.90987 72.2414 6.6584 73.2473 6.6584C74.4281 6.6584 75.3683 6.9208 76.0681 7.4456C76.7897 7.94853 77.3363 8.64827 77.7081 9.5448C78.4734 8.71387 79.2715 8.02507 80.1025 7.4784C80.9553 6.93173 81.8846 6.6584 82.8905 6.6584C84.5961 6.6584 85.8534 7.216 86.6625 8.3312C87.4715 9.4464 87.8761 11.0208 87.8761 13.0544V23.1568H84.0713V13.5464C84.0713 12.2125 83.8635 11.2723 83.4481 10.7256C83.0545 10.1789 82.4422 9.9056 81.6113 9.9056C80.6054 9.9056 79.4793 10.5725 78.2329 11.9064V23.1568H74.4609V13.5464C74.4609 12.2125 74.2531 11.2723 73.8377 10.7256C73.4441 10.1789 72.8209 9.9056 71.9681 9.9056C70.9622 9.9056 69.8361 10.5725 68.5897 11.9064V23.1568H64.8177Z" fill="#1B353D"/>
<path d="M92.4606 7.052V23.1568H96.2326V11.9064C96.9105 11.2504 97.5118 10.7584 98.0366 10.4304C98.5833 10.0805 99.2065 9.9056 99.9062 9.9056C100.803 9.9056 101.448 10.1789 101.841 10.7256C102.235 11.2723 102.432 12.2125 102.432 13.5464V23.1568H106.204V13.0544C106.204 11.0208 105.81 9.4464 105.023 8.3312C104.236 7.216 102.979 6.6584 101.251 6.6584C100.158 6.6584 99.1846 6.90987 98.3318 7.4128C97.479 7.91573 96.6918 8.51707 95.9702 9.2168H95.839L95.5766 7.052H92.4606Z" fill="#1B353D"/>
<path d="M115.438 7.56821C115.02 7.56821 114.652 7.85084 114.54 8.25316C114.301 9.11241 113.116 9.22287 112.743 8.41267L111.499 5.71293C111.051 4.73889 112.103 3.75601 113.044 4.27013L115.884 5.82128C116.729 6.28324 116.401 7.56821 115.438 7.56821Z" fill="#3B7586"/>
<path d="M112.934 10.8268C113.318 11.6605 114.529 11.5799 114.798 10.7026L115.334 8.96368C115.465 8.53765 115.862 8.24983 116.308 8.25796L117.859 8.28627C118.905 8.30534 119.275 6.91006 118.357 6.40885L112.936 3.44709C112.658 3.2957 112.638 2.9086 112.914 2.75523C113.92 2.1867 115.013 1.90244 116.194 1.90244C117.55 1.90244 118.796 2.26324 119.933 2.98484C121.092 3.70643 122.01 4.82163 122.688 6.33043C123.388 7.81737 123.738 9.7307 123.738 12.0704C123.738 14.76 123.355 16.9576 122.59 18.6632C121.824 20.347 120.819 21.5824 119.572 22.3696C118.326 23.1568 116.981 23.5504 115.538 23.5504C114.291 23.5504 113.209 23.3208 112.291 22.8616C111.679 22.5557 111.13 22.2061 110.644 21.8128C110.238 21.4842 110.229 20.8871 110.575 20.4961L111.234 19.752C111.637 19.2978 112.348 19.3112 112.844 19.6609C113.039 19.7985 113.248 19.9251 113.471 20.0408C114.084 20.3251 114.707 20.4672 115.341 20.4672C116.216 20.4672 117.014 20.2267 117.735 19.7456C118.457 19.2646 119.047 18.4664 119.507 17.3512C119.715 16.8354 119.88 16.2385 120.003 15.5607C120.168 14.6504 118.915 14.0996 118.096 14.5304C117.265 14.9678 116.467 15.1864 115.702 15.1864C113.909 15.1864 112.444 14.6616 111.307 13.612C110.191 12.5406 109.634 10.9115 109.634 8.72483C109.634 8.19878 109.676 7.70053 109.759 7.23009C109.903 6.41569 110.899 6.40785 111.245 7.15911L112.934 10.8268Z" fill="#0F756B"/>
</svg>
